<?xml version="1.0" encoding="UTF-8"?>
<svg version="1.1" xmlns="http://www.w3.org/2000/svg" width="500" height="500">
<path d="M0 0 C1.2478125 0.40476562 2.495625 0.80953125 3.78125 1.2265625 C23.03004257 7.77061135 42.79942384 18.28768189 58.609375 31.08203125 C60.47285831 32.57708077 62.35098346 34.02203044 64.265625 35.44921875 C64.84119141 35.88121582 65.41675781 36.31321289 66.00976562 36.75830078 C67.13492542 37.60153922 68.26361584 38.44009599 69.39648438 39.27294922 C73.22815575 42.16791126 76.06006097 45.24885557 79 49 C26 102 26 102 23.31640625 104.6796875 C21.68037908 106.31847357 20.055062 107.96798527 18.4375 109.625 C16.37288828 111.63667296 14.31802728 113.3043606 12 115 C11.5359375 114.53851563 11.071875 114.07703125 10.59375 113.6015625 C-14.6773577 89.74488247 -47.78232687 80.9992822 -81.72265625 81.71875 C-115.03994564 82.92863795 -143.96062495 97.3115981 -168 120 C-168.74894531 120.68449219 -169.49789062 121.36898437 -170.26953125 122.07421875 C-187.35073059 138.25798205 -197.98999334 160.40888598 -204.75 182.625 C-204.94883789 183.26880615 -205.14767578 183.9126123 -205.35253906 184.57592773 C-208.50840578 195.45771346 -209.36736033 206.4652306 -209.3125 217.75 C-209.30686035 218.9764624 -209.3012207 220.2029248 -209.29541016 221.46655273 C-209.16919202 230.93978619 -208.43659857 239.84250512 -206 249 C-205.80132324 249.75007324 -205.60264648 250.50014648 -205.39794922 251.27294922 C-198.91450376 274.93873928 -187.41756112 297.75512182 -169.25 314.625 C-168 316 -168 316 -168 318 C-167.42378906 318.25394531 -166.84757813 318.50789063 -166.25390625 318.76953125 C-163.74912118 320.13696158 -162.00330695 321.7220874 -159.9375 323.6875 C-154.99034138 328.15928019 -149.72105637 331.60010044 -144 335 C-142.91589844 335.66128906 -141.83179688 336.32257813 -140.71484375 337.00390625 C-120.03020939 349.41056408 -98.4302773 354.44415513 -74.3125 354.3125 C-73.61511719 354.31067719 -72.91773438 354.30885437 -72.19921875 354.30697632 C-60.92989296 354.25756357 -49.98645809 353.66973052 -39 351 C-38.33226562 350.83902832 -37.66453125 350.67805664 -36.9765625 350.51220703 C-21.6910089 346.64249368 -6.3916131 339.77686905 6 330 C6.77472656 329.42507813 7.54945313 328.85015625 8.34765625 328.2578125 C29.20973062 312.58513559 40.76588119 290.93647523 47 266 C6.74 266 -33.52 266 -75 266 C-75 236.3 -75 206.6 -75 176 C-3.39 176 68.22 176 142 176 C144.43476397 191.82596581 145.20876302 207.04837465 145.1875 223 C145.18656342 223.90796326 145.18562683 224.81592651 145.18466187 225.75140381 C145.13600825 247.51802288 143.36893117 267.845203 138 289 C137.78891602 289.83708496 137.57783203 290.67416992 137.36035156 291.53662109 C130.51336572 317.93813429 118.76578966 343.43359377 102 365 C101.49855469 365.69222656 100.99710937 366.38445312 100.48046875 367.09765625 C91.82810936 378.81667466 81.14701179 389.66061175 70 399 C69.21625 399.66 68.4325 400.32 67.625 401 C59.51330843 407.65574693 50.82381868 414.53254372 41.2421875 418.92578125 C38.80987487 420.09108782 36.47365918 421.39980092 34.12084961 422.71655273 C8.46613164 436.88808101 -20.9082708 444.33305426 -50 447 C-51.07991211 447.10151367 -51.07991211 447.10151367 -52.18164062 447.20507812 C-95.52092218 451.06377705 -140.42438155 443.2873023 -179.04736328 423.01904297 C-180.948582 422.02683405 -182.86092345 421.06010737 -184.77734375 420.09765625 C-198.6426951 413.04252719 -211.23198874 404.15691448 -223 394 C-223.58233398 393.50234131 -224.16466797 393.00468262 -224.76464844 392.49194336 C-238.16499366 380.93356428 -250.66183 368.4443506 -260.72070312 353.84716797 C-261.92647406 352.10616361 -263.16795972 350.39789699 -264.421875 348.69140625 C-297.91984809 302.01446334 -311.62864942 240.43253599 -302.49511719 183.87353516 C-296.12704071 147.85925806 -283.78562761 113.73594632 -262 84 C-261.29713867 83.01169189 -261.29713867 83.01169189 -260.58007812 82.00341797 C-253.32764895 71.85803347 -245.15522929 62.76574771 -236.375 53.9375 C-235.90003082 53.45635742 -235.42506165 52.97521484 -234.93569946 52.47949219 C-228.15471496 45.64182984 -221.0713799 39.2829518 -213 34 C-212.34 34 -211.68 34 -211 34 C-211 33.34 -211 32.68 -211 32 C-208.95073602 30.41337289 -206.9148273 28.97813208 -204.75 27.5625 C-204.08178223 27.12365479 -203.41356445 26.68480957 -202.72509766 26.23266602 C-142.79881644 -12.45747012 -67.90350353 -22.8548165 0 0 Z " fill="#35A853" transform="translate(325,32)"/>
<path d="M0 0 C1.2478125 0.40476562 2.495625 0.80953125 3.78125 1.2265625 C23.03004257 7.77061135 42.79942384 18.28768189 58.609375 31.08203125 C60.47285831 32.57708077 62.35098346 34.02203044 64.265625 35.44921875 C64.84119141 35.88121582 65.41675781 36.31321289 66.00976562 36.75830078 C67.13492542 37.60153922 68.26361584 38.44009599 69.39648438 39.27294922 C73.22815575 42.16791126 76.06006097 45.24885557 79 49 C26 102 26 102 23.31640625 104.6796875 C21.68037908 106.31847357 20.055062 107.96798527 18.4375 109.625 C16.37288828 111.63667296 14.31802728 113.3043606 12 115 C11.5359375 114.53851563 11.071875 114.07703125 10.59375 113.6015625 C-14.6773577 89.74488247 -47.78232687 80.9992822 -81.72265625 81.71875 C-115.03994564 82.92863795 -143.96062495 97.3115981 -168 120 C-168.74894531 120.68449219 -169.49789062 121.36898437 -170.26953125 122.07421875 C-187.35073059 138.25798205 -197.98999334 160.40888598 -204.75 182.625 C-204.94883789 183.26880615 -205.14767578 183.9126123 -205.35253906 184.57592773 C-208.50863384 195.45849981 -209.36504467 206.46465963 -209.3125 217.75 C-209.30903564 218.96993652 -209.30557129 220.18987305 -209.30200195 221.44677734 C-209.15357815 233.82745485 -207.5449433 245.36001307 -203.55078125 257.1171875 C-203 259 -203 259 -203 262 C-208.25714286 266 -208.25714286 266 -211 266 C-211.2475 266.639375 -211.495 267.27875 -211.75 267.9375 C-213 270 -213 270 -215.125 270.75 C-215.74375 270.8325 -216.3625 270.915 -217 271 C-217 271.66 -217 272.32 -217 273 C-218.33048053 273.91032879 -219.66854014 274.81053952 -221.03125 275.671875 C-223.42135428 277.28424694 -225.63322186 279.06220409 -227.875 280.875 C-231.06187035 283.4456779 -234.25145522 286.00748018 -237.5 288.5 C-238.1290625 288.9846875 -238.758125 289.469375 -239.40625 289.96875 C-241 291 -241 291 -243 291 C-243 291.66 -243 292.32 -243 293 C-244.65234375 294.2265625 -244.65234375 294.2265625 -246.9375 295.625 C-250.32943418 297.80703865 -253.34122356 300.08610898 -256.3125 302.8125 C-259.8862275 306.0768412 -263.57896793 309.08457477 -267.4375 312 C-268.44683594 312.763125 -269.45617187 313.52625 -270.49609375 314.3125 C-273 316 -273 316 -275 316 C-275 316.66 -275 317.32 -275 318 C-276.62626404 319.38232443 -278.2925002 320.71937515 -280 322 C-281.40434177 319.10822203 -282.79674146 316.21083197 -284.1875 313.3125 C-284.57486328 312.51521484 -284.96222656 311.71792969 -285.36132812 310.89648438 C-290.78097488 299.56449571 -294.76234683 288.16681365 -297.625 275.9375 C-297.92422363 274.67542725 -298.22344727 273.41335449 -298.53173828 272.11303711 C-312.72161878 210.90506929 -302.22609609 148.31932363 -269.43359375 94.7109375 C-267.09486819 91.03648128 -264.57334636 87.51244823 -262 84 C-261.29713867 83.01169189 -261.29713867 83.01169189 -260.58007812 82.00341797 C-253.32764895 71.85803347 -245.15522929 62.76574771 -236.375 53.9375 C-235.90003082 53.45635742 -235.42506165 52.97521484 -234.93569946 52.47949219 C-228.15471496 45.64182984 -221.0713799 39.2829518 -213 34 C-212.34 34 -211.68 34 -211 34 C-211 33.34 -211 32.68 -211 32 C-208.95073602 30.41337289 -206.9148273 28.97813208 -204.75 27.5625 C-204.08178223 27.12365479 -203.41356445 26.68480957 -202.72509766 26.23266602 C-142.79881644 -12.45747012 -67.90350353 -22.8548165 0 0 Z " fill="#E94235" transform="translate(325,32)"/>
<path d="M0 0 C71.61 0 143.22 0 217 0 C219.43476397 15.82596581 220.20876302 31.04837465 220.1875 47 C220.18656342 47.90796326 220.18562683 48.81592651 220.18466187 49.75140381 C220.13600825 71.51802288 218.36893117 91.845203 213 113 C212.78891602 113.83708496 212.57783203 114.67416992 212.36035156 115.53662109 C205.51336572 141.93813429 193.76578966 167.43359377 177 189 C176.49855469 189.69222656 175.99710938 190.38445312 175.48046875 191.09765625 C171.45048762 196.55598512 166.87348723 201.48364609 162.25 206.4375 C161.58734131 207.14865967 160.92468262 207.85981934 160.24194336 208.5925293 C159.29460327 209.5966687 159.29460327 209.5966687 158.328125 210.62109375 C157.7599707 211.2236499 157.19181641 211.82620605 156.60644531 212.44702148 C155 214 155 214 152 216 C147.16235552 212.83814086 142.51470557 209.61176445 138 206 C137.2575 205.690625 136.515 205.38125 135.75 205.0625 C135.1725 204.711875 134.595 204.36125 134 204 C133.87625 203.195625 133.7525 202.39125 133.625 201.5625 C133.41875 200.716875 133.2125 199.87125 133 199 C130.13343033 197.31668061 130.13343033 197.31668061 127 196 C126.53078125 195.525625 126.0615625 195.05125 125.578125 194.5625 C123.74395974 192.7464948 121.9216183 191.79290487 119.625 190.625 C115.74699592 188.54167095 113.03996782 186.20885492 110 183 C108.34151823 181.98648336 106.67334039 180.98879205 105 180 C99.28532715 175.88112259 93.49215281 171.47435986 89 166 C89 165.34 89 164.68 89 164 C88.0925 163.731875 87.185 163.46375 86.25 163.1875 C83.24164622 162.08829381 81.49641383 160.91391727 79 159 C77.67605165 158.63115092 76.34287461 158.29253492 75 158 C75.83402344 157.45472656 76.66804688 156.90945313 77.52734375 156.34765625 C89.63064643 148.29923968 98.54142234 138.74641521 107 127 C107.5671875 126.21238281 108.134375 125.42476563 108.71875 124.61328125 C115.45467679 114.34815878 119.05075565 101.7969774 122 90 C81.74 90 41.48 90 0 90 C0 60.3 0 30.6 0 0 Z " fill="#4286F4" transform="translate(250,208)"/>
<path d="M0 0 C0.44730469 0.38671875 0.89460938 0.7734375 1.35546875 1.171875 C1.96003906 1.69265625 2.56460938 2.2134375 3.1875 2.75 C3.77917969 3.26046875 4.37085937 3.7709375 4.98046875 4.296875 C9.73955874 8.31034354 14.69538804 12.03525538 19.6875 15.75 C25.13075592 19.81529466 30.50655294 23.94145146 35.7890625 28.21484375 C40.97172768 32.39943383 46.2684655 36.43965357 51.55249023 40.49487305 C56.97357425 44.65640701 62.37415938 48.84262768 67.75 53.0625 C68.3586792 53.53977539 68.9673584 54.01705078 69.59448242 54.50878906 C73.8761884 57.8761884 73.8761884 57.8761884 75 59 C75.33 57.35 75.66 55.7 76 54 C76.66 54 77.32 54 78 54 C78 53.01 78 52.02 78 51 C78.66 51 79.32 51 80 51 C80 49.35 80 47.7 80 46 C80.66 46 81.32 46 82 46 C82 44.35 82 42.7 82 41 C83.32 40.34 84.64 39.68 86 39 C84.42862084 43.96224997 82.71288046 48.73146545 80.625 53.5 C78.55578622 58.4073499 76.84430258 63.34296559 75.3125 68.4375 C75.11027832 69.09234375 74.90805664 69.7471875 74.69970703 70.421875 C71.51141223 81.35923935 70.6346649 92.40228326 70.6875 103.75 C70.69096436 104.96993652 70.69442871 106.18987305 70.69799805 107.44677734 C70.84642185 119.82745485 72.4550567 131.36001307 76.44921875 143.1171875 C77 145 77 145 77 148 C71.74285714 152 71.74285714 152 69 152 C68.62875 152.9590625 68.62875 152.9590625 68.25 153.9375 C67 156 67 156 64.875 156.75 C64.25625 156.8325 63.6375 156.915 63 157 C63 157.66 63 158.32 63 159 C61.66951947 159.91032879 60.33145986 160.81053952 58.96875 161.671875 C56.57864572 163.28424694 54.36677814 165.06220409 52.125 166.875 C48.93812965 169.4456779 45.74854478 172.00748018 42.5 174.5 C41.8709375 174.9846875 41.241875 175.469375 40.59375 175.96875 C39 177 39 177 37 177 C37 177.66 37 178.32 37 179 C35.34765625 180.2265625 35.34765625 180.2265625 33.0625 181.625 C29.67056582 183.80703865 26.65877644 186.08610898 23.6875 188.8125 C20.1137725 192.0768412 16.42103207 195.08457477 12.5625 198 C11.55316406 198.763125 10.54382812 199.52625 9.50390625 200.3125 C7 202 7 202 5 202 C5 202.66 5 203.32 5 204 C3.37373596 205.38232443 1.7074998 206.71937515 0 208 C-1.40434177 205.10822203 -2.79674146 202.21083197 -4.1875 199.3125 C-4.57486328 198.51521484 -4.96222656 197.71792969 -5.36132812 196.89648438 C-10.78097488 185.56449571 -14.76234683 174.16681365 -17.625 161.9375 C-17.92422363 160.67542725 -18.22344727 159.41335449 -18.53173828 158.11303711 C-30.66977083 105.75570363 -26.12458865 47.72761388 0 0 Z " fill="#F9BC05" transform="translate(45,146)"/>
<path d="M0 0 C71.61 0 143.22 0 217 0 C219.32699179 15.12544666 220.16636557 29.58961211 220.13037109 44.80419922 C220.12500832 47.4958255 220.13035095 50.18728498 220.13671875 52.87890625 C220.14007944 62.63564857 219.88997753 72.2771475 219 82 C218.67 82 218.34 82 218 82 C217.78467299 64.98916584 218.43126348 47.99856647 219 31 C218.34 31 217.68 31 217 31 C216.95101562 29.73285156 216.90203125 28.46570313 216.8515625 27.16015625 C216.77645809 25.46091904 216.70091368 23.76170124 216.625 22.0625 C216.57859375 20.81629883 216.57859375 20.81629883 216.53125 19.54492188 C216.49257813 18.71669922 216.45390625 17.88847656 216.4140625 17.03515625 C216.3826416 16.2862915 216.3512207 15.53742676 216.31884766 14.76586914 C216.02500795 12.21693346 215.54626078 9.82692312 214.98007202 7.32713318 C214.79732412 6.51677833 214.61457623 5.70642347 214.42629051 4.87151241 C214.28561464 4.25391332 214.14493877 3.63631422 214 3 C212.3729918 2.99503478 212.3729918 2.99503478 210.71311474 2.98996925 C184.34952469 2.90906042 157.98599334 2.81677124 131.62248516 2.71247292 C118.87341709 2.66230041 106.1243556 2.61585808 93.37524414 2.578125 C82.26620046 2.54523658 71.15720716 2.50542293 60.04821903 2.45720994 C54.16332476 2.43191358 48.27846406 2.4101416 42.39352989 2.39665604 C36.85896979 2.38386412 31.3245246 2.3618409 25.79002762 2.33261681 C23.75464047 2.32351852 21.7192348 2.31784558 19.68382835 2.31578636 C16.91280024 2.31247968 14.14210109 2.29704575 11.37113953 2.2784729 C10.55888796 2.28040763 9.74663639 2.28234237 8.90977114 2.28433573 C5.07848969 2.24573442 3.26469025 2.17646017 0 0 Z " fill="#6B9DEA" transform="translate(250,208)"/>
<path d="M0 0 C0.66 0 1.32 0 2 0 C0.42862084 4.96224997 -1.28711954 9.73146545 -3.375 14.5 C-5.44421378 19.4073499 -7.15569742 24.34296559 -8.6875 29.4375 C-8.88972168 30.09234375 -9.09194336 30.7471875 -9.30029297 31.421875 C-12.50011423 42.39878058 -13.33838935 53.42605775 -13.25 64.8125 C-13.24613281 66.02776367 -13.24226563 67.24302734 -13.23828125 68.49511719 C-13.15226307 77.46251268 -12.53697684 86.16238319 -11 95 C-11.66 94.67 -12.32 94.34 -13 94 C-13.59765625 91.56640625 -13.59765625 91.56640625 -14.0625 88.5625 C-14.62385918 84.65106811 -14.62385918 84.65106811 -16 81 C-16.09889585 78.31283176 -16.1398406 75.65214859 -16.1328125 72.96484375 C-16.13376923 72.1709877 -16.13472595 71.37713165 -16.13571167 70.55921936 C-16.13639251 68.88054322 -16.1345449 67.20186445 -16.13037109 65.52319336 C-16.12501441 62.94443903 -16.13032292 60.36585832 -16.13671875 57.78710938 C-16.13605809 56.15885378 -16.13477718 54.53059829 -16.1328125 52.90234375 C-16.13483673 52.12632309 -16.13686096 51.35030243 -16.13894653 50.55076599 C-16.11495583 45.11495583 -16.11495583 45.11495583 -15 44 C-14.77480313 42.06974111 -14.55251748 40.13870558 -14.37890625 38.203125 C-14 36 -14 36 -13.00390625 33.62890625 C-11.84140846 30.58469997 -11.58898325 27.93291269 -11.375 24.6875 C-11.30023438 23.61886719 -11.22546875 22.55023438 -11.1484375 21.44921875 C-11.09945312 20.64097656 -11.05046875 19.83273438 -11 19 C-10.34 19.33 -9.68 19.66 -9 20 C-8.67 18.35 -8.34 16.7 -8 15 C-7.34 15 -6.68 15 -6 15 C-6 14.01 -6 13.02 -6 12 C-5.34 12 -4.68 12 -4 12 C-4 10.35 -4 8.7 -4 7 C-3.34 7 -2.68 7 -2 7 C-2.04125 6.21625 -2.0825 5.4325 -2.125 4.625 C-2 2 -2 2 0 0 Z " fill="#F2CB51" transform="translate(129,185)"/>
<path d="M0 0 C0.33 0 0.66 0 1 0 C0.86183041 3.64616671 0.71318466 7.29183074 0.5625 10.9375 C0.52318359 11.97841797 0.48386719 13.01933594 0.44335938 14.09179688 C0.40146484 15.08115234 0.35957031 16.07050781 0.31640625 17.08984375 C0.27974854 18.00628662 0.24309082 18.92272949 0.20532227 19.86694336 C0 22 0 22 -1 23 C-1.09829972 24.48810333 -1.12798445 25.98082214 -1.12939453 27.47216797 C-1.13254669 28.42340546 -1.13569885 29.37464294 -1.13894653 30.35470581 C-1.1369223 31.39007477 -1.13489807 32.42544373 -1.1328125 33.4921875 C-1.13376923 34.54906769 -1.13472595 35.60594788 -1.13571167 36.69485474 C-1.13639376 38.9360561 -1.13453748 41.17725943 -1.13037109 43.41845703 C-1.12503382 46.85323529 -1.13030967 50.28788215 -1.13671875 53.72265625 C-1.13605777 55.89583362 -1.13477618 58.06901091 -1.1328125 60.2421875 C-1.13483673 61.273508 -1.13686096 62.30482849 -1.13894653 63.36740112 C-1.13421829 64.80371384 -1.13421829 64.80371384 -1.12939453 66.26904297 C-1.12859894 67.11207977 -1.12780334 67.95511658 -1.12698364 68.82369995 C-1.08419607 71.18146288 -1.08419607 71.18146288 0 74 C0.07973476 75.33525717 0.10771338 76.67412083 0.09765625 78.01171875 C0.09443359 78.76904297 0.09121094 79.52636719 0.08789062 80.30664062 C0.07532227 81.48516602 0.07532227 81.48516602 0.0625 82.6875 C0.05798828 83.48478516 0.05347656 84.28207031 0.04882812 85.10351562 C0.0370585 87.06904257 0.01912348 89.03453085 0 91 C-0.33 91 -0.66 91 -1 91 C-5.93777697 60.13113016 -6.11439754 30.73503832 0 0 Z " fill="#F2CE58" transform="translate(25,202)"/>
<path d="M0 0 C0 0.33 0 0.66 0 1 C-1.56240032 1.02730408 -3.1249427 1.04653226 -4.6875 1.0625 C-5.55761719 1.07410156 -6.42773438 1.08570313 -7.32421875 1.09765625 C-10 1 -10 1 -12.29821777 0.50198364 C-15.22631221 -0.04204818 -17.92664835 -0.1270764 -20.90429688 -0.12939453 C-22.65135925 -0.13412277 -22.65135925 -0.13412277 -24.43371582 -0.13894653 C-26.30730774 -0.13591019 -26.30730774 -0.13591019 -28.21875 -0.1328125 C-29.50938354 -0.13376923 -30.80001709 -0.13472595 -32.12976074 -0.13571167 C-34.85653892 -0.1371827 -37.58328425 -0.13505322 -40.31005859 -0.13037109 C-43.79688889 -0.12467416 -47.28364219 -0.12795634 -50.77046967 -0.13394356 C-54.10740254 -0.1384356 -57.44431494 -0.13528612 -60.78125 -0.1328125 C-62.03031128 -0.13483673 -63.27937256 -0.13686096 -64.56628418 -0.13894653 C-65.73099243 -0.13579437 -66.89570068 -0.13264221 -68.09570312 -0.12939453 C-69.11764771 -0.12859894 -70.13959229 -0.12780334 -71.19250488 -0.12698364 C-73.90153123 -0.00445376 -76.3565357 0.42027235 -79 1 C-80.43628457 1.06266512 -81.8750555 1.08686347 -83.3125 1.0625 C-85.1378125 1.0315625 -85.1378125 1.0315625 -87 1 C-87 0.67 -87 0.34 -87 0 C-57.964626 -4.64449141 -29.01561874 -5.86552293 0 0 Z " fill="#E07F77" transform="translate(294,24)"/>
<path d="M0 0 C5.21443333 -0.02470935 10.42883261 -0.04286444 15.64331055 -0.05493164 C17.41740513 -0.059962 19.19149556 -0.06678699 20.96557617 -0.07543945 C23.51482161 -0.08756174 26.06401226 -0.09324126 28.61328125 -0.09765625 C29.80405022 -0.10539818 29.80405022 -0.10539818 31.01887512 -0.11329651 C34.27656286 -0.11362877 36.88681521 -0.03772826 40 1 C41.72774185 1.1256032 43.45730553 1.22708843 45.1875 1.3125 C50.67035504 1.74996184 54.27806017 3.23811066 59 6 C54.97073707 7.61170517 52.00863633 6.23539271 48 5 C26.8715437 0.91062136 5.06764208 2.45354322 -16 6 C-16 5.34 -16 4.68 -16 4 C-12.5233662 1.85663839 -9.78770805 1.78722374 -5.75 1.875 C-4.67234375 1.89304687 -3.5946875 1.91109375 -2.484375 1.9296875 C-1.25460938 1.96449219 -1.25460938 1.96449219 0 2 C0 1.34 0 0.68 0 0 Z " fill="#D44B40" transform="translate(231,111)"/>
<path d="M0 0 C1.5 1.375 1.5 1.375 3 3 C3 3.66 3 4.32 3 5 C2.01 5 1.02 5 0 5 C0 5.99 0 6.98 0 8 C-0.66 8 -1.32 8 -2 8 C-2.16435547 9.03060547 -2.16435547 9.03060547 -2.33203125 10.08203125 C-2.56986328 11.43361328 -2.56986328 11.43361328 -2.8125 12.8125 C-2.96332031 13.70582031 -3.11414062 14.59914062 -3.26953125 15.51953125 C-4 18 -4 18 -5.46875 19.40625 C-7.79729501 21.82983766 -8.01256311 24.44137494 -8.6875 27.6875 C-8.93886719 28.86699219 -9.19023438 30.04648438 -9.44921875 31.26171875 C-9.63097656 32.16535156 -9.81273437 33.06898438 -10 34 C-10.66 34 -11.32 34 -12 34 C-11.938125 35.051875 -11.87625 36.10375 -11.8125 37.1875 C-12.01415969 41.28791361 -12.84554113 42.63904417 -15 46 C-15.71401232 49.19395026 -15.71401232 49.19395026 -16 52 C-16.66 52 -17.32 52 -18 52 C-18.33 52.99 -18.66 53.98 -19 55 C-16.63325524 35.9414764 -9.18096565 16.77291801 0 0 Z " fill="#F4CD57" transform="translate(45,146)"/>
<path d="M0 0 C0.55945313 0.12117188 1.11890625 0.24234375 1.6953125 0.3671875 C13.9427906 2.9269498 25.8514973 4.31872106 38.34350586 4.20581055 C40.46024421 4.18730112 42.5765476 4.18530359 44.69335938 4.18554688 C50.89397665 4.16335678 56.8584018 3.95040741 63 3 C65.6793948 2.89248014 68.31632049 2.9529179 71 3 C71 3.33 71 3.66 71 4 C60.68791483 6.2934963 50.916386 7.43872844 40.35302734 7.28125 C38.23647344 7.249799 36.12067233 7.24022107 34.00390625 7.234375 C11.2062935 7.10875145 11.2062935 7.10875145 4.25 3.9375 C3.02023438 3.39416016 3.02023438 3.39416016 1.765625 2.83984375 C0.89164063 2.42412109 0.89164063 2.42412109 0 2 C0 1.34 0 0.68 0 0 Z " fill="#7FC394" transform="translate(211,382)"/>
<path d="M0 0 C0.66 0 1.32 0 2 0 C0.13542989 7.25753996 -2.55383039 13.49666092 -6.25 20 C-6.73581543 20.86850586 -7.22163086 21.73701172 -7.72216797 22.63183594 C-11.11689598 28.62915125 -14.56271995 34.69758988 -19 40 C-19.33 40 -19.66 40 -20 40 C-20 38.35 -20 36.7 -20 35 C-20.99 34.67 -21.98 34.34 -23 34 C-21.02 34 -19.04 34 -17 34 C-17 33.01 -17 32.02 -17 31 C-16.34 31 -15.68 31 -15 31 C-15 29.35 -15 27.7 -15 26 C-14.01 26.33 -13.02 26.66 -12 27 C-12 25.68 -12 24.36 -12 23 C-11.34 23 -10.68 23 -10 23 C-10 21.68 -10 20.36 -10 19 C-9.34 19 -8.68 19 -8 19 C-8 18.01 -8 17.02 -8 16 C-7.34 16 -6.68 16 -6 16 C-5.87625 14.865625 -5.7525 13.73125 -5.625 12.5625 C-5.315625 10.7990625 -5.315625 10.7990625 -5 9 C-4.34 8.67 -3.68 8.34 -3 8 C-2.34227572 4.97065509 -2.34227572 4.97065509 -2 2 C-1.34 2 -0.68 2 0 2 C0 1.34 0 0.68 0 0 Z " fill="#75A3E6" transform="translate(449,353)"/>
<path d="M0 0 C5.61946506 3.4524818 10.0679294 6.67267854 14 12 C11.69 13.98 9.38 15.96 7 18 C7 17.01 7 16.02 7 15 C5.68 14.34 4.36 13.68 3 13 C3.875 8.25 3.875 8.25 5 6 C1.10540926 5.78918149 1.10540926 5.78918149 -2 7 C-1.67 6.21625 -1.34 5.4325 -1 4.625 C0.11866511 2.15667503 0.11866511 2.15667503 0 0 Z " fill="#E54339" transform="translate(390,69)"/>
<path d="M0 0 C21.0015067 0.6245428 42.00136218 1.28510385 63 2 C63 2.33 63 2.66 63 3 C41.81263374 4.61647481 21.04867093 4.19617301 0 1 C0 0.67 0 0.34 0 0 Z " fill="#83C395" transform="translate(212,476)"/>
<path d="M0 0 C0.66 0 1.32 0 2 0 C0.42862084 4.96224997 -1.28711954 9.73146545 -3.375 14.5 C-5.51417219 19.54326049 -7.20692873 24.62651989 -8.75 29.875 C-9.06590088 30.94524414 -9.06590088 30.94524414 -9.38818359 32.03710938 C-10.52502476 36.00348396 -11.40986347 39.90753145 -12 44 C-12.33 44 -12.66 44 -13 44 C-13.30221599 35.53795229 -12.14920797 27.36254017 -11 19 C-10.34 19.33 -9.68 19.66 -9 20 C-8.67 18.35 -8.34 16.7 -8 15 C-7.34 15 -6.68 15 -6 15 C-6 14.01 -6 13.02 -6 12 C-5.34 12 -4.68 12 -4 12 C-4 10.35 -4 8.7 -4 7 C-3.34 7 -2.68 7 -2 7 C-2.04125 6.21625 -2.0825 5.4325 -2.125 4.625 C-2 2 -2 2 0 0 Z " fill="#F4CE5F" transform="translate(129,185)"/>
<path d="M0 0 C0.99 0.33 1.98 0.66 3 1 C3.495 3.475 3.495 3.475 4 6 C1.69 5.67 -0.62 5.34 -3 5 C-3 5.99 -3 6.98 -3 8 C-3.50789063 8.24234375 -4.01578125 8.4846875 -4.5390625 8.734375 C-10.08161538 11.43299625 -15.16004454 14.16004454 -19.5625 18.5625 C-21.92344329 20.92344329 -24.00325922 22.54212611 -27 24 C-27.66 23.67 -28.32 23.34 -29 23 C-15.68587896 11 -15.68587896 11 -12 11 C-12 10.34 -12 9.68 -12 9 C-10.34928604 7.97388051 -8.68029994 6.97691857 -7 6 C-5.97980427 5.0206121 -4.97850195 4.02104551 -4 3 C-2 1.25 -2 1.25 0 0 Z " fill="#5AA94D" transform="translate(120,294)"/>
<path d="M0 0 C4.49828743 -0.02500545 8.99653638 -0.04300224 13.49487305 -0.05493164 C15.02027086 -0.05991292 16.54566401 -0.06670038 18.07104492 -0.07543945 C43.08404349 -0.21499343 43.08404349 -0.21499343 52 5 C47.97060898 6.61175641 45.01013708 5.23028622 41 4 C27.48095834 1.55506693 13.6965263 1.40303175 0 1 C0 0.67 0 0.34 0 0 Z " fill="#E68B85" transform="translate(238,112)"/>
<path d="M0 0 C0.66 0 1.32 0 2 0 C2 0.66 2 1.32 2 2 C3.32 2.33 4.64 2.66 6 3 C6.28875 4.093125 6.5775 5.18625 6.875 6.3125 C7.81893204 10.04013845 7.81893204 10.04013845 10 13 C10 13.99 10 14.98 10 16 C10.99 16 11.98 16 13 16 C13.12375 17.11375 13.12375 17.11375 13.25 18.25 C14.1396946 21.51221354 15.48503749 22.80954878 18 25 C17.67 25.99 17.34 26.98 17 28 C12.19057585 22.41023882 8.29701536 16.39838577 4.5625 10.0625 C4.11342285 9.30461182 3.6643457 8.54672363 3.20166016 7.76586914 C0 2.25754991 0 2.25754991 0 0 Z " fill="#74BC88" transform="translate(48,358)"/>
<path d="M0 0 C-8.71038149 7.78374517 -18.03227456 13.88710296 -29 18 C-28 15 -28 15 -25 13 C-24.01 13 -23.02 13 -22 13 C-22 12.34 -22 11.68 -22 11 C-20.68 11 -19.36 11 -18 11 C-18 10.34 -18 9.68 -18 9 C-16.68 9 -15.36 9 -14 9 C-14 8.34 -14 7.68 -14 7 C-13.01 7 -12.02 7 -11 7 C-11 6.34 -11 5.68 -11 5 C-10.34 5 -9.68 5 -9 5 C-9 4.34 -9 3.68 -9 3 C-8.34 3 -7.68 3 -7 3 C-7 2.01 -7 1.02 -7 0 C-3.86650268 -1.04449911 -3.01031744 -0.93423645 0 0 Z " fill="#7CC08F" transform="translate(388,436)"/>
<path d="M0 0 C0.66 0.33 1.32 0.66 2 1 C1.34 3.31 0.68 5.62 0 8 C2.475 8.99 2.475 8.99 5 10 C5 8.68 5 7.36 5 6 C6.32 5.67 7.64 5.34 9 5 C9.33 6.32 9.66 7.64 10 9 C7.69 10.65 5.38 12.3 3 14 C0.03 11.36 -2.94 8.72 -6 6 C-5.67 5.01 -5.34 4.02 -5 3 C-3.02 3.495 -3.02 3.495 -1 4 C-0.67 2.68 -0.34 1.36 0 0 Z " fill="#E35F53" transform="translate(334,133)"/>
<path d="M0 0 C3.57245854 1.56839643 6.48000936 3.29280145 9.375 5.875 C12.97985322 9.08906161 16.84880113 11.55297751 21 14 C23.70948956 15.62569374 26.37008484 17.24672323 29 19 C29 19.99 29 20.98 29 22 C28.34 22 27.68 22 27 22 C27 21.34 27 20.68 27 20 C26.443125 19.896875 25.88625 19.79375 25.3125 19.6875 C21.85570519 18.65980424 19.00587253 17.04778388 16.5 14.4375 C15.00893176 12.82314206 15.00893176 12.82314206 12.5625 12.0625 C9.61778917 10.84152234 8.0446862 9.42333179 6 7 C6 6.34 6 5.68 6 5 C4.02 4.34 2.04 3.68 0 3 C0 2.01 0 1.02 0 0 Z " fill="#399E7E" transform="translate(355,388)"/>
<path d="M0 0 C0.6328125 1.84375 0.6328125 1.84375 1 4 C-1.125 6.5 -1.125 6.5 -4 9 C-4.825 9.7425 -5.65 10.485 -6.5 11.25 C-9.09748916 13.06824241 -10.8801119 13.64344136 -14 14 C-13.67 15.98 -13.34 17.96 -13 20 C-18.75 18.125 -18.75 18.125 -21 17 C-20.154375 16.443125 -19.30875 15.88625 -18.4375 15.3125 C-11.62012656 10.75116343 -5.52902047 6.13036409 0 0 Z " fill="#7CAAE4" transform="translate(346,349)"/>
<path d="M0 0 C0.33 0.66 0.66 1.32 1 2 C1.66 2 2.32 2 3 2 C3 3.65 3 5.3 3 7 C3.66 7 4.32 7 5 7 C5 9.31 5 11.62 5 14 C6.32 14.33 7.64 14.66 9 15 C9 17.97 9 20.94 9 24 C9.66 24.33 10.32 24.66 11 25 C10.34 25.99 9.68 26.98 9 28 C7.67138726 24.83986097 6.36515864 21.67091607 5.0625 18.5 C4.68931641 17.613125 4.31613281 16.72625 3.93164062 15.8125 C1.74854132 10.46292332 0.4245455 5.76842779 0 0 Z " fill="#F4D055" transform="translate(30,314)"/>
<path d="M0 0 C4.22058517 1.55873884 8.09586788 3.59765582 12 5.8125 C12.60328125 6.14314453 13.2065625 6.47378906 13.828125 6.81445312 C17.85887137 9.09708232 20.85948067 11.59182277 24 15 C18.25 14.125 18.25 14.125 16 13 C13.88316159 13.89163577 13.88316159 13.89163577 12 15 C12.226875 14.401875 12.45375 13.80375 12.6875 13.1875 C12.790625 12.465625 12.89375 11.74375 13 11 C11.60411246 9.35405861 11.60411246 9.35405861 10 8 C10 7.34 10 6.68 10 6 C8.35 6 6.7 6 5 6 C5 5.34 5 4.68 5 4 C4.01 4 3.02 4 2 4 C2 3.34 2 2.68 2 2 C1.01 1.67 0.02 1.34 -1 1 C-0.67 0.67 -0.34 0.34 0 0 Z " fill="#E9887D" transform="translate(357,47)"/>
<path d="M0 0 C0.66 0.33 1.32 0.66 2 1 C1.67 2.65 1.34 4.3 1 6 C0.46375 6.12375 -0.0725 6.2475 -0.625 6.375 C-3.12714084 6.99834449 -3.12714084 6.99834449 -6 8.0625 C-9 9 -9 9 -13 9 C-13.33 9.99 -13.66 10.98 -14 12 C-16.68264684 13.45007937 -18.27331661 14.11784055 -21.3125 13.625 C-21.869375 13.41875 -22.42625 13.2125 -23 13 C-19.21917373 9.7751776 -14.86067793 7.96583927 -10.375 5.9375 C-8.83929671 5.24235191 -7.30535235 4.54330118 -5.7734375 3.83984375 C-5.09716309 3.53425537 -4.42088867 3.22866699 -3.72412109 2.91381836 C-1.81344866 2.00920332 -1.81344866 2.00920332 0 0 Z " fill="#76BF8C" transform="translate(323,367)"/>
<path d="M0 0 C-2.90833247 1.93888831 -5.58095937 3.13268926 -8.8125 4.4375 C-12.14348527 5.79889422 -15.43303766 7.14919456 -18.625 8.8125 C-21 10 -21 10 -23 10 C-22.67 8.02 -22.34 6.04 -22 4 C-21.26394531 3.87882812 -20.52789062 3.75765625 -19.76953125 3.6328125 C-18.79371094 3.46523437 -17.81789062 3.29765625 -16.8125 3.125 C-15.84957031 2.96257812 -14.88664063 2.80015625 -13.89453125 2.6328125 C-10.99268748 2.08156188 -10.99268748 2.08156188 -8.34375 0.9375 C-5.4590389 -0.21638444 -3.07775876 -0.14315157 0 0 Z " fill="#E28179" transform="translate(211,118)"/>
<path d="M0 0 C0.33 1.32 0.66 2.64 1 4 C1.33 4.66 1.66 5.32 2 6 C1.01 6.66 0.02 7.32 -1 8 C-1.33 8.99 -1.66 9.98 -2 11 C-8.625 12 -8.625 12 -12 12 C-8.04 8.04 -4.08 4.08 0 0 Z " fill="#E4594E" transform="translate(94,81)"/>
<path d="M0 0 C0.66 0.33 1.32 0.66 2 1 C0.9375 3.875 0.9375 3.875 -1 7 C-4.6875 8.375 -4.6875 8.375 -8 9 C-8 9.66 -8 10.32 -8 11 C-11 13 -11 13 -13.1875 12.625 C-13.785625 12.41875 -14.38375 12.2125 -15 12 C-13.37982158 10.66081194 -11.75370657 9.3288031 -10.125 8 C-9.22007813 7.2575 -8.31515625 6.515 -7.3828125 5.75 C-5 4 -5 4 -3 4 C-3 3.34 -3 2.68 -3 2 C-2.01 1.34 -1.02 0.68 0 0 Z " fill="#E3736D" transform="translate(117,62)"/>
<path d="M0 0 C0.33 0 0.66 0 1 0 C0.86183041 3.64616671 0.71318466 7.29183074 0.5625 10.9375 C0.50352539 12.49887695 0.50352539 12.49887695 0.44335938 14.09179688 C0.40146484 15.08115234 0.35957031 16.07050781 0.31640625 17.08984375 C0.27974854 18.00628662 0.24309082 18.92272949 0.20532227 19.86694336 C0 22 0 22 -1 23 C-1.23192865 24.51469448 -1.41215238 26.03754562 -1.5625 27.5625 C-1.64628906 28.38878906 -1.73007812 29.21507812 -1.81640625 30.06640625 C-1.87699219 30.70449219 -1.93757813 31.34257812 -2 32 C-2.33 32 -2.66 32 -3 32 C-3.43496578 20.93253744 -2.22636903 10.82704462 0 0 Z " fill="#F3CC54" transform="translate(25,202)"/>
<path d="M0 0 C2.76095941 3.4751508 4.98227854 7.22230423 7.1875 11.0625 C7.55552734 11.68705078 7.92355469 12.31160156 8.30273438 12.95507812 C11 17.6440167 11 17.6440167 11 21 C6.9957657 17.50912907 5.37328935 15.35048061 5 10 C3.68 9.67 2.36 9.34 1 9 C0.67 6.03 0.34 3.06 0 0 Z " fill="#78C18E" transform="translate(128,309)"/>
<path d="M0 0 C2.00293347 3.00440021 2.49271626 4.70993945 3.125 8.1875 C3.29257813 9.08855469 3.46015625 9.98960937 3.6328125 10.91796875 C3.75398438 11.60503906 3.87515625 12.29210937 4 13 C1.69 14.32 -0.62 15.64 -3 17 C-2.25 10.25 -2.25 10.25 0 8 C0.24212873 6.01871492 0.24212873 6.01871492 0.125 3.875 C0.063125 1.956875 0.063125 1.956875 0 0 Z " fill="#EDBE0D" transform="translate(118,281)"/>
<path d="M0 0 C0.66 0 1.32 0 2 0 C-0.27435204 7.18216433 -3.03584181 14.0758202 -6 21 C-6.66 21 -7.32 21 -8 21 C-8 19.02 -8 17.04 -8 15 C-7.34 15 -6.68 15 -6 15 C-6 14.01 -6 13.02 -6 12 C-5.34 12 -4.68 12 -4 12 C-4 10.35 -4 8.7 -4 7 C-3.34 7 -2.68 7 -2 7 C-2.04125 6.21625 -2.0825 5.4325 -2.125 4.625 C-2 2 -2 2 0 0 Z " fill="#E07B72" transform="translate(129,185)"/>
<path d="M0 0 C0.33 0.66 0.66 1.32 1 2 C0.328125 3.91015625 0.328125 3.91015625 -0.75 6.0625 C-1.09546875 6.77535156 -1.4409375 7.48820312 -1.796875 8.22265625 C-3 10 -3 10 -6 11 C-6.7115625 12.4540625 -6.7115625 12.4540625 -7.4375 13.9375 C-9.05210019 17.10211637 -9.73663082 17.87470028 -13 19 C-11.44301719 14.09456622 -8.56676327 10.62049764 -5.375 6.6875 C-4.859375 6.04232422 -4.34375 5.39714844 -3.8125 4.73242188 C-2.54705818 3.1506196 -1.27425738 1.57470937 0 0 Z " fill="#E68783" transform="translate(71,106)"/>
<path d="M0 0 C0.66 0.33 1.32 0.66 2 1 C0 4 0 4 -2.3125 5.375 C-5.13412328 6.93477064 -5.13412328 6.93477064 -7.5 9.5 C-9.88833936 11.88833936 -11.96989729 13.52589598 -15 15 C-15.66 14.67 -16.32 14.34 -17 14 C-3.68587896 2 -3.68587896 2 0 2 C0 1.34 0 0.68 0 0 Z " fill="#5AA437" transform="translate(108,303)"/>
<path d="M0 0 C0 0.66 0 1.32 0 2 C-2.46356795 3.23178398 -4.92749031 4.46267855 -7.39453125 5.6875 C-9.38681823 6.69111083 -11.3555086 7.74169339 -13.3125 8.8125 C-16.12608667 10.05571271 -17.96158987 10.26809501 -21 10 C-18.22865025 6.5883005 -14.40259234 5.09282546 -10.5 3.3125 C-9.82324219 2.99216797 -9.14648438 2.67183594 -8.44921875 2.34179688 C-5.4683084 0.96305234 -3.32224796 0 0 0 Z " fill="#E38178" transform="translate(165,37)"/>
<path d="M0 0 C-0.33 0.99 -0.66 1.98 -1 3 C-2.216875 3.103125 -3.43375 3.20625 -4.6875 3.3125 C-7.61280147 3.66148333 -8.98848014 3.99297569 -11.5625 5.5625 C-14.79953128 7.47151845 -17.31145693 7.21697312 -21 7 C-18.65365353 4.65365353 -16.80109801 4.04558698 -13.6875 2.9375 C-12.74261719 2.59589844 -11.79773438 2.25429688 -10.82421875 1.90234375 C-7.13995821 0.72521486 -3.87164014 0 0 0 Z " fill="#E27C73" transform="translate(186,30)"/>
<path d="M0 0 C0.33 0 0.66 0 1 0 C1.33 3.96 1.66 7.92 2 12 C1.01 11.67 0.02 11.34 -1 11 C-3.6569191 11.87914688 -3.6569191 11.87914688 -6 13 C-4.31326082 8.50202887 -2.18326108 4.27113698 0 0 Z " fill="#5A91EF" transform="translate(364,322)"/>
<path d="M0 0 C0.556875 0.28875 1.11375 0.5775 1.6875 0.875 C3.94525567 2.06282916 3.94525567 2.06282916 6.3125 2.625 C9.83956686 4.42954584 11.77266918 6.9387481 14.28515625 9.95703125 C16.39024441 12.46491532 18.6510144 14.72219579 21 17 C17.65750371 16.40312566 15.53563658 15.26396123 13 13 C13 12.34 13 11.68 13 11 C12.01 10.67 11.02 10.34 10 10 C9.38125 9.21625 8.7625 8.4325 8.125 7.625 C5.93807493 4.92350432 3.98666668 3.69513514 1 2 C0.67 1.34 0.34 0.68 0 0 Z " fill="#3A989F" transform="translate(330,368)"/>
<path d="M0 0 C1.20366211 0.00483398 1.20366211 0.00483398 2.43164062 0.00976562 C3.68170898 0.02233398 3.68170898 0.02233398 4.95703125 0.03515625 C5.80201172 0.03966797 6.64699219 0.04417969 7.51757812 0.04882812 C9.6015928 0.06060222 11.68557102 0.07853735 13.76953125 0.09765625 C13.76953125 0.42765625 13.76953125 0.75765625 13.76953125 1.09765625 C0.13627385 3.39378381 0.13627385 3.39378381 -6.23046875 3.09765625 C-6.56046875 2.43765625 -6.89046875 1.77765625 -7.23046875 1.09765625 C-4.46481493 0.17577164 -2.84763173 -0.02019597 0 0 Z " fill="#73BD87" transform="translate(283.23046875,474.90234375)"/>
<path d="M0 0 C0.66 0 1.32 0 2 0 C1.54537897 2.35493692 1.086405 4.70889085 0.625 7.0625 C0.49867188 7.71927734 0.37234375 8.37605469 0.2421875 9.05273438 C-0.62384507 13.44784965 -1.71626553 17.70786171 -3 22 C-3.33 22 -3.66 22 -4 22 C-3.61422945 14.25798419 -2.57611228 7.32328775 0 0 Z " fill="#84ADE8" transform="translate(464,306)"/>
<path d="M0 0 C0.66 0 1.32 0 2 0 C2 0.66 2 1.32 2 2 C2.99 2.33 3.98 2.66 5 3 C2.69 6.3 0.38 9.6 -2 13 C-2.66 11.68 -3.32 10.36 -4 9 C-3.01 8.67 -2.02 8.34 -1 8 C-0.67 5.36 -0.34 2.72 0 0 Z " fill="#E36B64" transform="translate(140,162)"/>
<path d="M0 0 C0.79921875 0.00644531 1.5984375 0.01289062 2.421875 0.01953125 C3.246875 0.03628906 4.071875 0.05304688 4.921875 0.0703125 C5.76234375 0.07933594 6.6028125 0.08835937 7.46875 0.09765625 C9.53658104 0.12115433 11.60426495 0.15702342 13.671875 0.1953125 C13.671875 0.5253125 13.671875 0.8553125 13.671875 1.1953125 C6.411875 2.1853125 -0.848125 3.1753125 -8.328125 4.1953125 C-8.328125 3.5353125 -8.328125 2.8753125 -8.328125 2.1953125 C-5.40988256 0.52856929 -3.35218121 -0.0478883 0 0 Z " fill="#E4837E" transform="translate(223.328125,112.8046875)"/>
<path d="M0 0 C1.98 0 3.96 0 6 0 C2.83648952 2.10900699 0.11959156 3.0584157 -3.5 4.1875 C-4.6446875 4.55230469 -5.789375 4.91710937 -6.96875 5.29296875 C-10 6 -10 6 -13 5 C-12.34 5 -11.68 5 -11 5 C-10.67 4.01 -10.34 3.02 -10 2 C-6.7 2 -3.4 2 0 2 C0 1.34 0 0.68 0 0 Z " fill="#75BD89" transform="translate(331,464)"/>
<path d="M0 0 C4.80336309 0.11741554 8.73332047 0.3153872 12.5625 3.4375 C15 6 15 6 15 8 C9.52067211 6.45454854 4.88570819 3.84456788 0 1 C0 0.67 0 0.34 0 0 Z " fill="#E47C77" transform="translate(301,122)"/>
<path d="M0 0 C-6.76462618 3.70443815 -12.4593422 4.13001134 -20 4 C-16.76393248 2.21860706 -13.57342755 1.22819081 -10 0.3125 C-8.96875 0.04050781 -7.9375 -0.23148438 -6.875 -0.51171875 C-4.11053448 -0.98122716 -2.60249272 -0.93214283 0 0 Z " fill="#E37C76" transform="translate(206,26)"/>
<path d="M0 0 C3.95366149 2.27701616 7.59658958 4.83144073 11.25 7.5625 C12.30703125 8.34753906 13.3640625 9.13257813 14.453125 9.94140625 C17 12 17 12 18 14 C16.68 13.67 15.36 13.34 14 13 C14 12.34 14 11.68 14 11 C13.01 11 12.02 11 11 11 C11 10.34 11 9.68 11 9 C10.113125 8.773125 9.22625 8.54625 8.3125 8.3125 C4.5358753 6.81610154 2.61382024 5.07508263 0 2 C0 1.34 0 0.68 0 0 Z " fill="#FEAC1D" transform="translate(48,150)"/>
<path d="M0 0 C-1.45855647 3.68646141 -3.30229045 5.16143971 -6.625 7.25 C-7.44226563 7.77078125 -8.25953125 8.2915625 -9.1015625 8.828125 C-10.04128906 9.40820312 -10.04128906 9.40820312 -11 10 C-11.33 8.02 -11.66 6.04 -12 4 C-9.36 4 -6.72 4 -4 4 C-4 3.01 -4 2.02 -4 1 C-2 0 -2 0 0 0 Z " fill="#59B171" transform="translate(402,423)"/>
<path d="M0 0 C0.33 0.99 0.66 1.98 1 3 C-2.21311475 8.73770492 -2.21311475 8.73770492 -6 10 C-6.33 10.66 -6.66 11.32 -7 12 C-7.66 12 -8.32 12 -9 12 C-7.55575365 8.76138697 -5.74227753 6.38030837 -3.375 3.75 C-2.74335937 3.04359375 -2.11171875 2.3371875 -1.4609375 1.609375 C-0.97882813 1.07828125 -0.49671875 0.5471875 0 0 Z " fill="#E48079" transform="translate(81,94)"/>
<path d="M0 0 C0.64066406 0.13277344 1.28132812 0.26554687 1.94140625 0.40234375 C6.94983993 1.42493006 11.93111794 2.33884147 17 3 C17 3.33 17 3.66 17 4 C10.32477353 5.11477625 6.00914805 5.26584133 0 2 C0 1.34 0 0.68 0 0 Z " fill="#79C08D" transform="translate(211,382)"/>
<path d="M0 0 C0.640625 1.83203125 0.640625 1.83203125 1 4 C-1.53816609 7.03169839 -3.22508911 8.74169637 -7 10 C-6.42424336 6.64749299 -5.40693737 5.06181371 -2.9375 2.75 C-2.38964844 2.22921875 -1.84179688 1.7084375 -1.27734375 1.171875 C-0.64505859 0.59179688 -0.64505859 0.59179688 0 0 Z " fill="#6B9AEB" transform="translate(346,349)"/>
<path d="M0 0 C0.33 0 0.66 0 1 0 C0.1688087 11.26482946 0.1688087 11.26482946 -2 15 C-2.99 15.33 -3.98 15.66 -5 16 C-3.41078475 10.63904723 -1.81027062 5.29156027 0 0 Z " fill="#83A9E8" transform="translate(370,306)"/>
<path d="M0 0 C1.65 0.33 3.3 0.66 5 1 C1.56638098 4.63559661 -1.7973607 7.36113346 -6 10 C-6 8.68 -6 7.36 -6 6 C-5.01 6 -4.02 6 -3 6 C-3 5.01 -3 4.02 -3 3 C-1.68 2.67 -0.36 2.34 1 2 C0.67 1.34 0.34 0.68 0 0 Z " fill="#E1C11C" transform="translate(98,306)"/>
<path d="M0 0 C0.33 1.32 0.66 2.64 1 4 C-1.31 5.65 -3.62 7.3 -6 9 C-6.66 8.01 -7.32 7.02 -8 6 C-6.68 5.67 -5.36 5.34 -4 5 C-4 3.68 -4 2.36 -4 1 C-2 0 -2 0 0 0 Z " fill="#E36B63" transform="translate(343,138)"/>
<path d="M0 0 C9.77904328 3.85421412 9.77904328 3.85421412 12 8 C6.70139194 6.7023817 2.65474354 4.84984298 -2 2 C-1.34 1.34 -0.68 0.68 0 0 Z " fill="#70BE89" transform="translate(142,450)"/>
<path d="M0 0 C3 0 3 0 4.67578125 1.20703125 C6.38179304 3.51694102 6.31091704 4.84890819 6.1875 7.6875 C6.16042969 8.49574219 6.13335937 9.30398438 6.10546875 10.13671875 C6.07066406 10.75160156 6.03585938 11.36648438 6 12 C3.25207517 8.59780735 0 4.51535412 0 0 Z " fill="#F2CE53" transform="translate(40,342)"/>
<path d="M0 0 C0.99 0.33 1.98 0.66 3 1 C-9.45224719 12 -9.45224719 12 -12 12 C-12 11.01 -12 10.02 -12 9 C-5.375 5.125 -5.375 5.125 -2 4 C-2 3.34 -2 2.68 -2 2 C-1.34 2 -0.68 2 0 2 C0 1.34 0 0.68 0 0 Z " fill="#D9C224" transform="translate(69,331)"/>
<path d="M0 0 C0.33 0 0.66 0 1 0 C1.46331872 4.54052344 1.17990558 7.2520726 -1.4375 10.9375 C-2.283125 11.948125 -3.12875 12.95875 -4 14 C-4.33 14 -4.66 14 -5 14 C-5 12.35 -5 10.7 -5 9 C-5.99 8.67 -6.98 8.34 -8 8 C-6.02 8 -4.04 8 -2 8 C-2 7.01 -2 6.02 -2 5 C-1.34 5 -0.68 5 0 5 C0 3.35 0 1.7 0 0 Z " fill="#70A0EA" transform="translate(434,379)"/>
<path d="M0 0 C-3.75 3 -3.75 3 -6 3 C-6 3.66 -6 4.32 -6 5 C-7.98 5.99 -7.98 5.99 -10 7 C-10.33 5.68 -10.66 4.36 -11 3 C-10.01 2.67 -9.02 2.34 -8 2 C-7.67 1.34 -7.34 0.68 -7 0 C-2.52459016 -1.26229508 -2.52459016 -1.26229508 0 0 Z " fill="#DEBF1B" transform="translate(56,345)"/>
<path d="M0 0 C3.26008643 3.16952847 6.22237877 6.39937989 9 10 C8.01 10.495 8.01 10.495 7 11 C7 10.34 7 9.68 7 9 C5.35 9 3.7 9 2 9 C1.34 6.03 0.68 3.06 0 0 Z " fill="#6FBE84" transform="translate(143,334)"/>
<path d="M0 0 C1.3274855 3.98245651 -0.00092171 6.44789543 -1.4375 10.1875 C-1.80198242 11.16879883 -1.80198242 11.16879883 -2.17382812 12.16992188 C-2.7743293 13.78303286 -3.38609203 15.3919435 -4 17 C-5.07174763 13.34811918 -4.76411467 10.73567172 -4 7 C-3.34 7 -2.68 7 -2 7 C-2 5.35 -2 3.7 -2 2 C-1.34 2 -0.68 2 0 2 C0 1.34 0 0.68 0 0 Z " fill="#8DB5EA" transform="translate(459,329)"/>
<path d="M0 0 C1.98 1.65 3.96 3.3 6 5 C4.02 7.31 2.04 9.62 0 12 C-0.33 10.68 -0.66 9.36 -1 8 C-0.01 8 0.98 8 2 8 C1.855625 7.4225 1.71125 6.845 1.5625 6.25 C1.04166667 4.16666667 0.52083333 2.08333333 0 0 Z " fill="#DF7470" transform="translate(398,75)"/>
<path d="M0 0 C-1.1196986 1.00593243 -2.2459412 2.0045849 -3.375 3 C-4.00148438 3.556875 -4.62796875 4.11375 -5.2734375 4.6875 C-7 6 -7 6 -9 6 C-9 5.01 -9 4.02 -9 3 C-8.34 3 -7.68 3 -7 3 C-7 2.01 -7 1.02 -7 0 C-3.86650268 -1.04449911 -3.01031744 -0.93423645 0 0 Z " fill="#6BBA80" transform="translate(388,436)"/>
<path d="M0 0 C4.8274799 1.41292095 8.7162359 3.42974154 13 6 C13 6.33 13 6.66 13 7 C11.02 7 9.04 7 7 7 C6.67 6.01 6.34 5.02 6 4 C4.35 3.67 2.7 3.34 1 3 C0.67 2.01 0.34 1.02 0 0 Z " fill="#76BC8A" transform="translate(182,369)"/>
<path d="M0 0 C9.59453303 5.0022779 9.59453303 5.0022779 13 9 C7.71824432 8.24546347 3.43856408 6.16247231 0 2 C0 1.34 0 0.68 0 0 Z " fill="#85C296" transform="translate(169,360)"/>
<path d="M0 0 C0.66 0 1.32 0 2 0 C1.57316761 1.58624235 1.13303842 3.1689098 0.6875 4.75 C0.44386719 5.63171875 0.20023437 6.5134375 -0.05078125 7.421875 C-1.02125331 10.05772505 -2.21005644 11.85407326 -4 14 C-4.26252625 9.66831683 -3.29243536 6.1196377 -2 2 C-1.34 2 -0.68 2 0 2 C0 1.34 0 0.68 0 0 Z " fill="#82ABE8" transform="translate(449,353)"/>
<path d="M0 0 C0.66 0.33 1.32 0.66 2 1 C0.95600254 2.34786992 -0.11102066 3.67792729 -1.1875 5 C-1.77917969 5.7425 -2.37085938 6.485 -2.98046875 7.25 C-5 9 -5 9 -7.73828125 9.25 C-8.48464844 9.1675 -9.23101562 9.085 -10 9 C-6.83047153 5.73991357 -3.60062011 2.77762123 0 0 Z " fill="#53A338" transform="translate(62,339)"/>
<path d="M0 0 C0.99 0.33 1.98 0.66 3 1 C3.33 2.65 3.66 4.3 4 6 C2.02 7.32 0.04 8.64 -2 10 C-2 8.02 -2 6.04 -2 4 C-1.34 4 -0.68 4 0 4 C0 2.68 0 1.36 0 0 Z " fill="#E7675C" transform="translate(346,130)"/>
<path d="M0 0 C0.99 0.66 1.98 1.32 3 2 C0.42215154 4.64752004 -1.91648098 6.94432065 -5 9 C-5 7.35 -5 5.7 -5 4 C-4.34 4 -3.68 4 -3 4 C-3 3.34 -3 2.68 -3 2 C-2.01 2 -1.02 2 0 2 C0 1.34 0 0.68 0 0 Z " fill="#E37067" transform="translate(391,89)"/>
<path d="M0 0 C4.1917835 2.06474261 8.11111448 4.40740966 12 7 C12 7.99 12 8.98 12 10 C11.34 10 10.68 10 10 10 C10 9.34 10 8.68 10 8 C9.40703125 7.90847656 8.8140625 7.81695312 8.203125 7.72265625 C5.47465343 6.82767887 4.52874959 5.66093699 2.75 3.4375 C2.22921875 2.79683594 1.7084375 2.15617187 1.171875 1.49609375 C0.78515625 1.00238281 0.3984375 0.50867188 0 0 Z " fill="#3C92B6" transform="translate(372,400)"/>
<path d="M0 0 C0.1875 2.375 0.1875 2.375 0 5 C-0.99 5.66 -1.98 6.32 -3 7 C-3.33 7.99 -3.66 8.98 -4 10 C-4.66 10 -5.32 10 -6 10 C-6 8.68 -6 7.36 -6 6 C-5.34 6 -4.68 6 -4 6 C-4 4.35 -4 2.7 -4 1 C-1 0 -1 0 0 0 Z " fill="#5A8FE8" transform="translate(377,296)"/>
<path d="M0 0 C0.33 0.99 0.66 1.98 1 3 C1.639375 3.12375 2.27875 3.2475 2.9375 3.375 C3.618125 3.58125 4.29875 3.7875 5 4 C6.25 6.5625 6.25 6.5625 7 9 C3.06326356 7.68775452 0.77280706 6.08089673 -2 3 C-1.34 3 -0.68 3 0 3 C0 2.01 0 1.02 0 0 Z " fill="#6BBA80" transform="translate(118,433)"/>
<path d="M0 0 C1.65 0 3.3 0 5 0 C5.33 0.99 5.66 1.98 6 3 C7.65 3.33 9.3 3.66 11 4 C10.67 5.32 10.34 6.64 10 8 C6.05205855 6.32971708 3.18203882 3.8204435 0 1 C0 0.67 0 0.34 0 0 Z " fill="#7CC18E" transform="translate(106,428)"/>
<path d="M0 0 C1.98 0 3.96 0 6 0 C4.02 2.31 2.04 4.62 0 7 C-1.32 6.34 -2.64 5.68 -4 5 C-3.34 4.67 -2.68 4.34 -2 4 C-1.34 4.33 -0.68 4.66 0 5 C0 3.35 0 1.7 0 0 Z " fill="#699EE4" transform="translate(403,417)"/>
<path d="M0 0 C1.98 0 3.96 0 6 0 C5.875 1.875 5.875 1.875 5 4 C1.9375 5.25 1.9375 5.25 -1 6 C-0.67 4.02 -0.34 2.04 0 0 Z " fill="#E3645E" transform="translate(189,122)"/>
<path d="M0 0 C4.9723422 1.49170266 9.41845739 3.60457417 14 6 C14 6.33 14 6.66 14 7 C12.35 7 10.7 7 9 7 C9 6.34 9 5.68 9 5 C7.68 5 6.36 5 5 5 C5 4.34 5 3.68 5 3 C3.35 2.67 1.7 2.34 0 2 C0 1.34 0 0.68 0 0 Z " fill="#E4887E" transform="translate(343,40)"/>
<path d="M0 0 C1.79379098 0.44994757 3.58498928 0.91024143 5.375 1.375 C6.37273437 1.63023438 7.37046875 1.88546875 8.3984375 2.1484375 C11 3 11 3 13 5 C7.73946963 5.31563182 4.55426184 4.66590937 0 2 C0 1.34 0 0.68 0 0 Z " fill="#E17E74" transform="translate(323,32)"/>
<path d="M0 0 C-0.39803561 2.88575819 -0.79009069 3.82189513 -3.0625 5.75 C-3.701875 6.1625 -4.34125 6.575 -5 7 C-5.33 5.02 -5.66 3.04 -6 1 C-4 0 -4 0 0 0 Z " fill="#6B9AEB" transform="translate(423,400)"/>
<path d="M0 0 C2.97 0.495 2.97 0.495 6 1 C3.525 4.465 3.525 4.465 1 8 C-0.42944945 5.64561267 -1.08661261 4.51967567 -0.625 1.75 C-0.41875 1.1725 -0.2125 0.595 0 0 Z " fill="#E56960" transform="translate(146,155)"/>
<path d="M0 0 C-3.12488567 2.52394612 -6.31314387 4.39701907 -10 6 C-10.66 5.67 -11.32 5.34 -12 5 C-8.36219404 0.99841344 -5.42711258 -0.30150625 0 0 Z " fill="#82C495" transform="translate(359,454)"/>
<path d="M0 0 C1.98 0 3.96 0 6 0 C6.66 2.31 7.32 4.62 8 7 C4.2047869 5.50902342 2.38957269 3.24299151 0 0 Z " fill="#70BC84" transform="translate(94,418)"/>
<path d="M0 0 C2 2 2 2 2.046875 4.34765625 C1.94890625 5.24355469 1.8509375 6.13945312 1.75 7.0625 C1.61851562 8.41021484 1.61851562 8.41021484 1.484375 9.78515625 C1.32453125 10.51605469 1.1646875 11.24695313 1 12 C0.01 12.495 0.01 12.495 -1 13 C-1.07654536 8.48382401 -1.10228696 4.40914783 0 0 Z " fill="#78A1E7" transform="translate(466,291)"/>
<path d="M0 0 C1.31611677 0.95336021 2.62778961 1.91285774 3.9375 2.875 C4.66839844 3.40867188 5.39929688 3.94234375 6.15234375 4.4921875 C8 6 8 6 9 8 C6.69 7.67 4.38 7.34 2 7 C1.34 4.69 0.68 2.38 0 0 Z " fill="#FCAE19" transform="translate(72,168)"/>
<path d="M0 0 C0.33 1.32 0.66 2.64 1 4 C0.01 4.33 -0.98 4.66 -2 5 C-2 5.66 -2 6.32 -2 7 C-3.98 7.66 -5.96 8.32 -8 9 C-7.04270084 7.87411986 -6.08412105 6.7493285 -5.125 5.625 C-4.59132813 4.99851562 -4.05765625 4.37203125 -3.5078125 3.7265625 C-2.38567993 2.44163349 -1.20628025 1.20628025 0 0 Z " fill="#E4857B" transform="translate(90,85)"/>
<path d="M0 0 C-1.32 0.33 -2.64 0.66 -4 1 C-4 1.66 -4 2.32 -4 3 C-5.65 3.66 -7.3 4.32 -9 5 C-9.33 3.68 -9.66 2.36 -10 1 C-3.375 -1.125 -3.375 -1.125 0 0 Z " fill="#DFBE1A" transform="translate(112,302)"/>
<path d="M0 0 C2.00293347 3.00440021 2.49271626 4.70993945 3.125 8.1875 C3.37636719 9.53908203 3.37636719 9.53908203 3.6328125 10.91796875 C3.75398438 11.60503906 3.87515625 12.29210937 4 13 C3.01 13.33 2.02 13.66 1 14 C0.67 9.38 0.34 4.76 0 0 Z " fill="#F2D46F" transform="translate(118,281)"/>
<path d="M0 0 C0.33 0 0.66 0 1 0 C1.12375 1.03125 1.2475 2.0625 1.375 3.125 C1.9397835 6.62665772 2.86038492 9.65712909 4 13 C4 13.99 4 14.98 4 16 C3.34 16 2.68 16 2 16 C0.13216954 10.51324804 -0.2358396 5.77807024 0 0 Z " fill="#F1BC21" transform="translate(115,272)"/>
<path d="M0 0 C2.64 1.65 5.28 3.3 8 5 C6 6 6 6 4.125 5.4375 C1.41764326 4.88010302 0.31134891 5.59668102 -2 7 C-1.67 6.21625 -1.34 5.4325 -1 4.625 C0.11866511 2.15667503 0.11866511 2.15667503 0 0 Z " fill="#E8736D" transform="translate(390,69)"/>
<path d="M0 0 C2.81080836 1.14726872 4.1782406 1.94701628 6.0625 4.25 C0.3125 3.375 0.3125 3.375 -1.9375 2.25 C-4.05433841 3.14163577 -4.05433841 3.14163577 -5.9375 4.25 C-5.5625 2.3125 -5.5625 2.3125 -4.9375 0.25 C-2.9375 -0.75 -2.9375 -0.75 0 0 Z " fill="#E5675B" transform="translate(374.9375,57.75)"/>
<path d="M0 0 C2.97 0.495 2.97 0.495 6 1 C3.06171403 3.50298434 0.82097239 4.46930939 -3 5 C-3 4.34 -3 3.68 -3 3 C-2.34 3 -1.68 3 -1 3 C-0.67 2.01 -0.34 1.02 0 0 Z " fill="#6ABC81" transform="translate(340,459)"/>
<path d="M0 0 C0.66 0.33 1.32 0.66 2 1 C1.67 2.65 1.34 4.3 1 6 C-1.64 6.33 -4.28 6.66 -7 7 C-6.01 6.67 -5.02 6.34 -4 6 C-4 5.01 -4 4.02 -4 3 C-2 1.3125 -2 1.3125 0 0 Z " fill="#65B47A" transform="translate(323,367)"/>
<path d="M0 0 C0.33 1.32 0.66 2.64 1 4 C-0.9375 6.25 -0.9375 6.25 -3 8 C-3.99 7.67 -4.98 7.34 -6 7 C-4.02 4.69 -2.04 2.38 0 0 Z " fill="#83ACE9" transform="translate(355,338)"/>
<path d="M0 0 C0.66 0 1.32 0 2 0 C1.67 1.65 1.34 3.3 1 5 C-1.31 5.33 -3.62 5.66 -6 6 C-4 4 -2 2 0 0 Z " fill="#63A63B" transform="translate(78,326)"/>
<path d="M0 0 C3.93673644 1.31224548 6.22719294 2.91910327 9 6 C6.03 5.505 6.03 5.505 3 5 C3 4.34 3 3.68 3 3 C2.01 3 1.02 3 0 3 C0 2.01 0 1.02 0 0 Z " fill="#FCA91D" transform="translate(81,176)"/>
<path d="M0 0 C0.66 0 1.32 0 2 0 C2.33 0.66 2.66 1.32 3 2 C3.99 2.33 4.98 2.66 6 3 C6 3.99 6 4.98 6 6 C6.99 6.33 7.98 6.66 9 7 C8.34 7.66 7.68 8.32 7 9 C5.83037314 7.69013727 4.66437056 6.3770374 3.5 5.0625 C2.8503125 4.33160156 2.200625 3.60070312 1.53125 2.84765625 C0 1 0 1 0 0 Z " fill="#86C499" transform="translate(74,397)"/>
<path d="M0 0 C3 1 3 1 4.1875 3.0625 C4.455625 3.701875 4.72375 4.34125 5 5 C4.01 5 3.02 5 2 5 C1.67 4.34 1.34 3.68 1 3 C-0.65 3.66 -2.3 4.32 -4 5 C-2.25 1.125 -2.25 1.125 0 0 Z " fill="#3E9F69" transform="translate(327,366)"/>
<path d="M0 0 C2.69082872 0.17635452 5.32851446 0.61835921 8 1 C7.67 1.66 7.34 2.32 7 3 C5 3.33333333 3 3.66666667 1 4 C0.67 4.66 0.34 5.32 0 6 C-0.38218767 4.34385343 -0.71395102 2.67542976 -1 1 C-0.67 0.67 -0.34 0.34 0 0 Z " fill="#EEBF0D" transform="translate(106,298)"/>
<path d="M0 0 C-1.65 1.98 -3.3 3.96 -5 6 C-5.66 5.67 -6.32 5.34 -7 5 C-6.625 2.5625 -6.625 2.5625 -6 0 C-3.50907189 -1.24546405 -2.58919267 -0.7767578 0 0 Z " fill="#E36C63" transform="translate(376,109)"/>
<path d="M0 0 C3.93673644 1.31224548 6.22719294 2.91910327 9 6 C7.68 6 6.36 6 5 6 C5 5.34 5 4.68 5 4 C4.01 4 3.02 4 2 4 C2 3.34 2 2.68 2 2 C1.01 1.67 0.02 1.34 -1 1 C-0.67 0.67 -0.34 0.34 0 0 Z " fill="#E27670" transform="translate(357,47)"/>
<path d="M0 0 C2.83374881 3.20336822 3.5205537 5.78087253 4 10 C3.01 9.67 2.02 9.34 1 9 C0.67 6.03 0.34 3.06 0 0 Z " fill="#69B880" transform="translate(128,309)"/>
<path d="M0 0 C7.57142857 4 7.57142857 4 10 8 C7.525 7.01 7.525 7.01 5 6 C5 5.34 5 4.68 5 4 C2.525 3.01 2.525 3.01 0 2 C0 1.34 0 0.68 0 0 Z " fill="#FDA320" transform="translate(97,188)"/>
<path d="M0 0 C3.7910119 1.44950455 7.3874638 3.15172566 11 5 C10.67 5.66 10.34 6.32 10 7 C5.56541027 5.6062718 3.12621626 3.39417765 0 0 Z " fill="#E0581D" transform="translate(93,184)"/>
<path d="M0 0 C1.65 0 3.3 0 5 0 C5.99 1.98 6.98 3.96 8 6 C4.08597051 4.73058503 2.20927127 3.48832306 0 0 Z " fill="#E45122" transform="translate(63,160)"/>
<path d="M0 0 C2.475 0.495 2.475 0.495 5 1 C3.63016497 4.16115776 3.0109362 4.9927092 0 7 C0 4.69 0 2.38 0 0 Z " fill="#E25A51" transform="translate(355,122)"/>
<path d="M0 0 C3.3 0.33 6.6 0.66 10 1 C10.33 1.99 10.66 2.98 11 4 C7.0507432 3.44894091 3.65079826 2.61064629 0 1 C0 0.67 0 0.34 0 0 Z " fill="#E68A83" transform="translate(290,118)"/>
<path d="M0 0 C0.66 0 1.32 0 2 0 C2 0.66 2 1.32 2 2 C2.639375 2.103125 3.27875 2.20625 3.9375 2.3125 C4.618125 2.539375 5.29875 2.76625 6 3 C6.33 3.99 6.66 4.98 7 6 C4.0625 5.25 4.0625 5.25 1 4 C0.125 1.875 0.125 1.875 0 0 Z " fill="#5CB678" transform="translate(48,358)"/>
<path d="M0 0 C0.66 0.33 1.32 0.66 2 1 C1.525625 1.37125 1.05125 1.7425 0.5625 2.125 C-1.52205802 4.62646962 -1.64621491 6.81593418 -2 10 C-2.66 9.34 -3.32 8.68 -4 8 C-3.625 5.375 -3.625 5.375 -3 3 C-2.01 2.67 -1.02 2.34 0 2 C0 1.34 0 0.68 0 0 Z " fill="#69AF5C" transform="translate(50,348)"/>
<path d="M0 0 C0.33 0 0.66 0 1 0 C1 1.98 1 3.96 1 6 C-0.65 6.66 -2.3 7.32 -4 8 C-2.87548273 5.0280615 -1.77706209 2.66559313 0 0 Z " fill="#86AFED" transform="translate(362,327)"/>
<path d="M0 0 C2.31 0 4.62 0 7 0 C7 0.66 7 1.32 7 2 C7.66 2.33 8.32 2.66 9 3 C6.03 2.67 3.06 2.34 0 2 C0 1.34 0 0.68 0 0 Z " fill="#6EBD84" transform="translate(202,473)"/>
<path d="M0 0 C2.64 0.33 5.28 0.66 8 1 C8.33 2.32 8.66 3.64 9 5 C5.9168649 3.80100302 2.93720508 2.52299523 0 1 C0 0.67 0 0.34 0 0 Z " fill="#88C697" transform="translate(131,446)"/>
<path d="M0 0 C-1.45255699 3.82946843 -3.42895561 5.12050295 -7 7 C-7 6.01 -7 5.02 -7 4 C-6.01 4 -5.02 4 -4 4 C-4 3.01 -4 2.02 -4 1 C-2 0 -2 0 0 0 Z " fill="#7EC098" transform="translate(402,423)"/>
<path d="M0 0 C0.33 2.31 0.66 4.62 1 7 C-0.98 5.35 -2.96 3.7 -5 2 C-1.125 0 -1.125 0 0 0 Z " fill="#75C08B" transform="translate(93,411)"/>
<path d="M0 0 C1.45922693 0.11409593 2.91740598 0.24165544 4.375 0.375 C5.59316406 0.47941406 5.59316406 0.47941406 6.8359375 0.5859375 C9 1 9 1 11 3 C8.69 3 6.38 3 4 3 C4 2.34 4 1.68 4 1 C2.68 0.67 1.36 0.34 0 0 Z " fill="#6BB87F" transform="translate(229,386)"/>
<path d="M0 0 C0.6875 1.6875 0.6875 1.6875 1 4 C-0.3125 6.75 -0.3125 6.75 -2 9 C-2.66 9 -3.32 9 -4 9 C-2.94124926 5.59687262 -1.99097846 2.98646769 0 0 Z " fill="#E58E88" transform="translate(50,137)"/>
<path d="M0 0 C1.65 0.99 3.3 1.98 5 3 C3.625 4.5 3.625 4.5 2 6 C1.34 6 0.68 6 0 6 C0 4.02 0 2.04 0 0 Z " fill="#E56D63" transform="translate(385,65)"/>
<path d="M0 0 C2.4375 0.8125 2.4375 0.8125 5 2 C5.33 2.99 5.66 3.98 6 5 C5.01 5.33 4.02 5.66 3 6 C2.67 4.68 2.34 3.36 2 2 C1.34 2 0.68 2 0 2 C0 1.34 0 0.68 0 0 Z " fill="#36A270" transform="translate(394,419)"/>
<path d="M0 0 C0.33 0.66 0.66 1.32 1 2 C-0.65 3.65 -2.3 5.3 -4 7 C-4 4 -4 4 -2 1.8125 C-1.34 1.214375 -0.68 0.61625 0 0 Z " fill="#E07B73" transform="translate(63,118)"/>
<path d="M0 0 C0.66 0.33 1.32 0.66 2 1 C1.34 2.32 0.68 3.64 0 5 C-1.98 5 -3.96 5 -6 5 C-4.06745228 2.9754262 -2.36841312 1.57894208 0 0 Z " fill="#EA8985" transform="translate(129,54)"/>
</svg>
